<svg xmlns="http://www.w3.org/2000/svg" viewBox="0 0 258 258">
  <defs>
    <linearGradient x1="27.04%" y1="28.15%" x2="50%" y2="56.88%" id="a">
      <stop stop-opacity=".43" offset="0%"/>
      <stop stop-opacity="0" offset="100%"/>
    </linearGradient>
  </defs>
  <g fill="none" fill-rule="evenodd">
    <path d="m150 12.12 69.72 40.26a42 42 0 0 1 21 36.37v80.5a42 42 0 0 1-21 36.37L150 245.88a42 42 0 0 1-42 0l-69.72-40.26a42 42 0 0 1-21-36.37v-80.5a42 42 0 0 1 21-36.37L108 12.12a42 42 0 0 1 42 0Z" fill="#D96151"/>
    <path d="m230.38 61.15.03.03a42 42 0 0 1 10.3 27.57v80.5a42 42 0 0 1-21 36.37L150 245.88a42 42 0 0 1-28.38 4.97 42 42 0 0 1-10.34-27.6v-80.5a42 42 0 0 1 21-36.37L202 66.12a42 42 0 0 1 28.38-4.97Z" fill-opacity=".12" fill="#000"/>
    <path d="M104.05 208V88.73h47.76c8.77 0 16.09 1.3 21.95 3.9 5.86 2.6 10.27 6.2 13.22 10.8 2.95 4.6 4.43 9.9 4.43 15.87 0 4.66-.93 8.75-2.8 12.26a23.9 23.9 0 0 1-7.66 8.62 31.5 31.5 0 0 1-11.09 4.75v1.16a27.36 27.36 0 0 1 22.48 13.77c2.48 4.26 3.73 9.31 3.73 15.18 0 6.33-1.57 11.96-4.7 16.92-3.12 4.95-7.73 8.86-13.82 11.73-6.1 2.87-13.61 4.31-22.54 4.31h-50.96Zm25.22-20.62h20.56c7.02 0 12.15-1.35 15.37-4.04 3.22-2.7 4.83-6.3 4.83-10.8 0-3.3-.8-6.22-2.38-8.74a16.25 16.25 0 0 0-6.79-5.94c-2.93-1.44-6.41-2.16-10.45-2.16h-21.14v31.68Zm0-48.74h18.7c3.45 0 6.52-.61 9.22-1.84a15.35 15.35 0 0 0 6.4-5.2 13.78 13.78 0 0 0 2.37-8.1c0-4.31-1.53-7.79-4.57-10.43-3.05-2.64-7.37-3.96-12.96-3.96h-19.16v29.53Z" fill="#FFF" fill-rule="nonzero"/>
    <path d="m150 12.12 69.72 40.26a41.96 41.96 0 0 1 10.66 8.77A42 42 0 0 0 202 66.12l-69.72 40.26a42 42 0 0 0-21 36.37v80.5a42 42 0 0 0 10.34 27.6 41.96 41.96 0 0 1-13.62-4.97l-69.72-40.26a42 42 0 0 1-21-36.37v-80.5a42 42 0 0 1 21-36.37L108 12.12a42 42 0 0 1 42 0Z" fill="#D96151"/>
    <path d="m230.38 61.15.03.03a42 42 0 0 1 10.3 27.57v80.5a42 42 0 0 1-21 36.37L150 245.88a42 42 0 0 1-28.38 4.97 42 42 0 0 1-10.34-27.6v-80.5a42 42 0 0 1 21-36.37L202 66.12a42 42 0 0 1 28.38-4.97Z" fill="url(#a)"/>
    <path d="M129 6.5h.52A41.97 41.97 0 0 1 150 12.12l69.72 40.26a41.96 41.96 0 0 1 10.18 8.23l.48.54c-2.3-.41-4.64-.63-6.97-.65h-.58c-7 .03-14 1.8-20.3 5.33l-.53.3-69.72 40.25-.5.29.5-.3a42.16 42.16 0 0 0-3.78 2.47l-.1.08a41.95 41.95 0 0 0-.91.68l-.15.12-.03.02a41.94 41.94 0 0 0-3.35 2.94l-.06.06a42.04 42.04 0 0 0-6.87 8.8l-.24.41-93.88-54.2a41.97 41.97 0 0 1 15.37-15.37L108 12.12a41.97 41.97 0 0 1 20.48-5.62h.52Z" fill-opacity=".4" fill="#F1705F"/>
  </g>
</svg>
